<?xml version="1.0" encoding="utf-8"?>
<!-- Generator: Adobe Illustrator 14.0.0, SVG Export Plug-In . SVG Version: 6.00 Build 43363)  -->
<!DOCTYPE svg PUBLIC "-//W3C//DTD SVG 1.1//EN" "http://www.w3.org/Graphics/SVG/1.1/DTD/svg11.dtd">
<svg version="1.1" id="Layer_1" xmlns="http://www.w3.org/2000/svg" xmlns:xlink="http://www.w3.org/1999/xlink" x="0px" y="0px"
	 width="1024px" height="768px" viewBox="0 0 1024 768" enable-background="new 0 0 1024 768" xml:space="preserve">
<path d="M335.741,283.314c0,0,10,13.866,15.967,26.135s10.504,32.773,16.387,45.211c5.883,12.438,5.967,11.514,14.623,14.875
	s5.209,5.126,18.572,10.168c13.362,5.042,19.875,6.597,21.009,9.244c1.135,2.647-0.756,5.042-7.311,7.312
	c-6.555,2.269-22.614,6.334-45.758,3.277c-13.362-1.766-16.009-7.438-19.16-22.942c-3.151-15.504-5.547-35.295-9.833-39.959
	c0,0-6.807,0.252-7.941,37.942l-0.504,16.892c0,0-3.193,0.672-3.866-0.169c0,0-0.672-31.261-1.007-38.488
	c-0.336-7.227-1.849-20.169-7.228-31.262c-5.378-11.093-4.549-13.52-3.361-18.153C318.011,296.843,331.792,282.052,335.741,283.314z
	"/>
<path d="M463.657,387.859c0,0,5.717,5.159,27.606,5.159c0,0,0.141-3.347,3.627-4.741c3.484-1.394,8.085-1.951,8.085-1.951
	s-4.043-48.661-3.067-53.122c0,0,14.221,9.342,17.01,15.616c2.789,6.274,7.808,27.188,9.342,33.184
	c1.533,5.995,2.789,11.711,18.684,13.803c15.895,2.091,37.645,3.625,50.333-1.255c12.687-4.88,12.827-4.601,14.082-16.453
	c1.255-11.851,1.392-12.686,0.975-15.057c0,0-1.255-3.764-8.366-4.043c-7.109-0.279-20.496-1.254-20.496-1.254
	s5.16-7.529,5.021-9.76c-0.14-2.231-3.903-3.486-5.021-2.231c-1.114,1.254-6.412,10.457-6.412,10.457l-8.924,0.14
	c0,0,11.891-6.957,14.222-11.154c1.395-2.509-1.534-4.741-2.928-3.905c-1.395,0.837-11.991,10.876-21.751,14.64l-2.23,1.255
	c0,0-7.947-2.092-14.361-7.668c-6.413-5.577-19.24-18.405-19.24-18.405s5.299-8.924,4.322-18.126c0,0,12.27-2.369,18.125-2.927
	c0,0,2.092-2.37,1.395-5.438l-14.222-6.135c0,0-1.533-0.558-2.648-1.812c0,0-4.741-4.601-7.948-5.856
	c-3.206-1.255-17.567-4.602-18.264-4.602c-0.698,0,0.558,5.438,1.812,5.856c1.255,0.417,14.5,3.067,16.174,4.043l-1.814,2.37h-3.903
	c0,0-7.948-2.928-11.572-3.904c-3.625-0.976-15.755-1.673-16.173-1.673c-0.419,0-1.255,2.371-0.698,3.904
	c0.558,1.534,2.65,1.115,11.155,2.23c8.505,1.116,7.809,1.534,7.809,1.534s-13.106,3.485-18.963,13.246
	c0,0-11.922-5.199-16.312-4.043c-2.649,0.697-1.116,4.88-1.116,4.88s1.255,9.62,1.395,17.01c0.14,7.39-0.139,30.953-3.485,48.381
	L463.657,387.859z M520.543,303.785l7.391-0.279c0,0,3.625,1.115,5.716,2.648l-10.597,2.092L520.543,303.785z M518.871,309.751
	c0,0-7.366,2.707-8.232,3.654c0,0,1.733-5.819,0.289-9.203l5.432,0.14C516.359,304.343,518.035,306.935,518.871,309.751z
	 M512.875,326.373c0,0,5.158-5.438,6.135-6.972c0,0-1.115,5.996-2.928,8.924L512.875,326.373z M507.438,323.723l1.394-4.323
	c0,0,7.11-3.903,6.832-2.788l-6.832,7.808L507.438,323.723z M497.956,319.54c0,0,3.904-8.227,7.808-10.178
	c0,0,0.559,3.208-1.673,8.366c0,0-3.206,2.231-4.043,2.37C499.211,320.237,497.956,319.54,497.956,319.54z M488.894,316.194
	c4.183-6.971,12.618-9.76,12.618-9.76s-5.996,6.485-7.459,11.154C493.634,318.145,488.894,316.194,488.894,316.194z"/>
<path d="M313.667,482.322c0,0-7.392-0.399-11.587,8.791c-4.195,9.188-2.797,20.576-4.395,28.567
	c-1.599,7.992-7.792,12.786-0.2,16.981c7.592,4.195,14.783,6.792,29.767,6.792s15.782-0.999,24.373-8.591c0,0,2.597-2.597,6.792,0.6
	s5.994,8.391,19.978,8.391c13.984,0,33.163,3.597,53.54-8.59c20.377-12.187,10.589-24.373,5.194-24.373
	c-5.394,0-24.772,1.199-31.564-2.197c-6.793-3.396-11.787-6.394-11.787-6.394s-0.599-2.197-2.397-2.197
	c-1.798,0-1.598,0.799-2.797,0.6c-1.199-0.2-4.396-3.597-4.396-4.194c0-0.6-1.598-1.799-2.796-1.799c-1.199,0-1.599,1.599-1.998,0.6
	s-3.796-4.195-3.796-4.195s0.999-2.797-0.399-4.195s-2.997-2.797-4.795-2.397c-1.798,0.399-2.397,0.599-3.396,0
	c-0.999-0.6-0.2-2.198-1.198-3.196c-0.999-0.999-6.792-5.994-8.591-7.192c-1.798-1.199-3.396,0-3.996,3.196s0.2,6.593,0.2,6.593
	s-1.797,1.998-10.588,5.594c-8.79,3.597-12.187,4.795-18.379,3.597C318.262,491.912,315.865,482.522,313.667,482.322z"/>
<path d="M664.941,619.139c0,0-12.845,11.913-12.101,26.062c0.744,14.147,9.309,13.404,12.287,21.967
	c2.979,8.563,3.909,7.818,4.281,36.301h7.633c0,0-5.399-29.041-3.165-37.046c2.234-8.004,10.053-0.371,17.499,7.634
	s18.058,31.46,38.906,30.902c20.851-0.559,69.811-7.262,70.182-15.638c0.372-8.378-18.614-1.676-28.296-2.606
	c-9.68-0.931-20.85-7.632-24.2-7.446c-3.351,0.187-12.286,5.771-30.343-4.096c-18.058-9.866-29.228-33.695-39.279-43.562
	C668.292,621.744,666.803,618.952,664.941,619.139z"/>
<path d="M308.661,627.062c0,0,1.09,10.187-0.088,13.248c-1.179,3.062-2.243,6.661-2.021,9.145c0.222,2.482-1.172,1.654-0.779,4.944
	c0.394,3.291-3.581,6.102-4.175,9.039c-0.595,2.938-5.36,13.508-3.602,24.661l-0.289,12.994c0,0,16.28,7.79,35.867,5.319
	c19.585-2.471,36.701,0.644,41.651,0.999c4.952,0.354,40.835,1.453,61.351-13.866c0,0,6.725-5.645,2.451-14.297
	c-4.274-8.65-19.544-7.378-26.89-6.1c0,0-6.644,0.286-10.428-0.317c-3.784-0.602-11.638-3.151-15.068-4.954
	c-3.431-1.802-8.02-4.764-9.529-6.131c-1.03-0.933-3.17-3.074-4.997-4.752c-0.848-0.78-1.628-1.459-2.198-1.872
	c-1.8-1.305-4.064-3.354-4.407-4.969s-1.497-4.181-1.725-5.258c-0.229-1.075,0.307-17.214-5.404-16.845
	c-5.711,0.369-33.729,4.91-42.246,0.513C310.604,625.707,309.048,625.276,308.661,627.062z"/>
<path d="M649.609,529.406c0,0-5.164,15.188,4.557,15.797c9.722,0.607,37.972,0.607,38.884,0.304c0.911-0.304,4.86-5.164,6.986-5.468
	c2.127-0.305,16.708-0.305,26.732,4.253c10.025,4.557,52.554,4.557,78.982-8.81c0,0,3.646-12.151-1.822-15.493
	s-21.265-2.733-29.467-2.733c-8.201,0-11.239-5.165-16.707-9.721c-5.469-4.557-15.189-8.202-15.189-8.202s-0.304,4.86-0.607,8.506
	c0,0-71.388-20.961-82.324-17.315c0,0-5.164,2.734-9.417,14.885C645.964,517.56,644.445,524.242,649.609,529.406z"/>
<path d="M644.833,325.66c0,0,13.007,41.075,6.161,67.433l24.987,0.342c0,0-5.818-43.814-3.422-52.714
	c0,0,33.544,11.296,37.652,20.196c4.106,8.899,13.349,32.86,33.203,34.572c19.853,1.712,65.721-2.396,66.404-5.819
	c0.686-3.423,2.396-12.322-2.396-13.007c-4.793-0.685-22.592-2.739-22.592-2.739l-2.054-13.007c0,0-16.43-13.692-18.483-14.035
	c-2.055-0.342-39.022,13.008-41.418,13.008c0,0-15.746-19.511-35.6-26.7c0,0-0.685-6.161-1.026-10.611
	c-0.343-4.45,11.296-8.215,15.746-8.899c4.449-0.685,6.846,0.685,7.872,0.685c1.027,0,2.054-3.081,3.766-3.081
	s20.537-1.027,20.537-1.027s1.712-8.557-0.684-9.584c-2.396-1.026-23.619,0.685-26.7,0c-3.081-0.684-9.241-1.026-10.611,0
	c-1.369,1.027-6.503,2.054-9.926,0.343c-3.423-1.712-4.792,1.026-4.792,1.026s-14.034-12.322-16.088-16.087
	c-2.054-3.766-3.766-4.792-8.558,0.342S636.961,304.095,644.833,325.66z"/>
<path d="M361.49,99.909l0.48,17.268c0,0,0.48,6.715,0.48,8.633c0,1.919-1.439,2.399,0,4.796c1.438,2.398,1.948,6.212-0.45,10.689
	c-2.398,4.477,4.158,2.239,2.239,8.154c-1.918,5.916,0.479,10.073,1.919,12.951c1.438,2.878,6.875,15.829,8.474,21.265
	c1.599,5.437,6.715,22.385,12.952,26.063c6.235,3.677,9.113,5.916,30.378,3.038c0,0,5.277,0.639,5.756,2.878
	c0.48,2.238-1.279,4.157-9.434,6.396c-8.155,2.239-33.867,7.51-53.083-0.639c-11.938-5.063-15.669-22.065-26.861-25.104
	c-11.192-3.038-9.434,21.266-9.593,26.382h-4.478c0,0,3.998-18.867-0.639-29.1s-7.995-11.032-2.559-20.466
	c5.437-9.434,12.472-13.59,10.393-19.826c-2.078-6.236-5.276-5.916-4.316-9.913c0.959-3.997,3.517-5.916,0.319-15.35
	c-3.198-9.433-9.273-24.463-8.474-47.807c0.799-23.344,0.159-25.902,0.159-25.902s17.908,0,21.106-0.64
	c3.198-0.639,14.71-1.279,19.826-1.279c5.117,0,8.954,2.558,8.954,2.558S362.42,82.827,361.49,99.909z"/>
<path d="M502.908,538.034c0,0,8.065,4.555,26.162,11.143c28.137,10.243,65.969,0.883,75.099-2.651c0,0,5.302-3.828,0.589-7.067
	c0,0-0.294-8.541-10.012-11.486c-9.72-2.944-24.15-5.007-26.506-6.184c-2.357-1.179-14.727-10.014-14.727-10.014
	s0.59-3.24-7.656-10.014s-7.068-6.479-7.068-6.479s-25.77,0.294-56.014-5.215c0,0-12.295-2.209-11.707,3.976
	c0.589,6.185-5.906,25.094-2.667,29.217v13.842l27.831,5.841L502.908,538.034z"/>
<path d="M601.887,703.312c-0.194-2.527-4.073-8.003-5.939-10.505c8.586-5.367-0.486-14.386-7.401-18.229
	c-9.235-5.13-26.681-16.675-34.378-25.397c-7.695-8.724-15.648-17.702-18.728-33.352c-3.079-15.65-6.67-16.419-12.058-13.854
	c-5.388,2.566-32.325,10.774-32.069,13.084c0,0,2.31,22.319,1.54,28.732c-0.77,6.414-3.079,25.398,2.565,31.3
	c0,0,1.796,11.801,3.592,13.341c1.796,1.539,3.848,1.538,7.183,2.309c0.609,0.14,1.234,0.288,1.857,0.437
	c-0.132,2.164-0.583,4.441-1.857,4.95c-2.564,1.026-14.11,0.514-15.393,0.514c-1.282,0-4.104,1.796-1.795,5.131
	c0,0,48.488,9.749,109.546,7.695C598.552,709.468,602.143,706.646,601.887,703.312z M561.865,701.772
	c-1.795,1.282-36.174-0.514-41.561-3.078c-3.527-1.681-5.405-3.911-6.426-6.546c0.217-0.019,0.395-0.06,0.525-0.125
	c1.025-0.513,13.34-5.645,13.34-5.645s10.518,11.032,16.162,11.289c4.238,0.192,5.728,0.964,19.02,0.25
	C562.926,699.517,562.701,701.175,561.865,701.772z M593.664,703.046c-4.555,1.401-14.88,1.711-19.741-1.018
	c-1.806-1.013-2.821-2.813-3.392-4.594c2.936-0.211,6.266-0.471,10.062-0.793c4.544-0.386,8.11-1.037,10.86-1.883
	C593.275,697.528,596.016,702.322,593.664,703.046z"/>
<path d="M449.18,182.486c-0.56,0-1.014-0.454-1.014-1.015c0-0.56,0.454-1.014,1.014-1.014h2.613c0.021-0.212,0.047-0.422,0.08-0.629
	l-2.525-0.665c-0.542-0.143-0.865-0.698-0.722-1.239c0.142-0.542,0.697-0.866,1.238-0.723l2.525,0.665
	c0.076-0.208,0.161-0.409,0.25-0.609l-2.271-1.292c-0.487-0.277-0.657-0.896-0.38-1.383c0.278-0.486,0.897-0.657,1.383-0.38
	l2.272,1.292c0.145-0.203,0.292-0.401,0.451-0.593l-1.848-1.847c-0.396-0.397-0.396-1.039,0-1.435c0.396-0.396,1.038-0.396,1.434,0
	l1.847,1.847c0.164-0.134,0.333-0.262,0.504-0.385l-1.316-2.259c-0.282-0.483-0.119-1.104,0.365-1.386
	c0.484-0.283,1.105-0.119,1.387,0.365l1.316,2.256c0.199-0.091,0.4-0.176,0.607-0.255l-0.692-2.518
	c-0.149-0.541,0.169-1.099,0.709-1.247c0.54-0.149,1.098,0.169,1.246,0.709l0.693,2.521c0.242-0.042,0.488-0.077,0.737-0.101v-2.612
	c0-0.561,0.454-1.014,1.014-1.014s1.014,0.454,1.014,1.014v2.612c0.212,0.021,0.422,0.048,0.63,0.081l0.665-2.525
	c0.143-0.542,0.697-0.866,1.239-0.724c0.542,0.144,0.865,0.698,0.723,1.239l-0.666,2.524c0.207,0.077,0.409,0.162,0.61,0.251
	l1.292-2.271c0.278-0.487,0.896-0.657,1.383-0.38s0.658,0.896,0.38,1.383l-1.293,2.272c0.168,0.118,0.333,0.242,0.493,0.37
	c0.182-0.109,0.333-0.199,0.446-0.267l1.501-1.501c0.053-0.053,0.112-0.098,0.172-0.137c0.516-0.562,1.067-1.19,1.46-1.713
	c0.96-1.28-4.484-1.281-2.563-4.483c1.921-3.203,2.563,0.961,4.803,1.281c2.243,0.32,7.367,0.961,7.367,0.961s0,0,2.563-2.883
	c2.562-2.882,1.921-11.529,1.921-11.529c0.32-17.294-7.366-76.865-6.405-86.793c0.96-9.928,18.895-13.13,18.895-13.13
	s11.53-8.007,32.667-4.484c21.138,3.522,21.138,19.536,21.138,19.536s0.444,18.662,0.018,22.292
	c-0.427,3.63-2.349,7.687-3.843,17.082c-1.496,9.395,0.854,51.672,0.854,51.672l2.135,0.427l1.922,9.822l-1.707,0.427
	c0,0,10.248,16.44,24.768,24.128c14.52,7.687,18.791,6.192,18.791,6.192c17.08,0.214,24.127,2.989,26.477,2.989
	c2.348,0,0.854,7.901,0.854,7.901c1.922-0.427,2.563,1.921,2.563,1.921c2.135,5.552-1.494,5.979-1.494,5.979
	c-19.645,9.608-49.965,14.52-65.339,14.52s-25.837-13.238-25.837-13.238l-13.237,6.192c-3.63,0.214-26.69-3.417-26.69-3.417
	s0.427-0.854-0.214-4.271c-0.641-3.416-8.328-16.441-8.328-16.441l1.28-1.067c-1.494-5.766-1.992-21.423-2.348-22.633
	c-0.355-1.21-5.551-1.139-7.331-1.068c-0.09,0.004-0.2,0.024-0.321,0.054c0.008,0.024,0.021,0.047,0.028,0.073
	c0.148,0.54-0.17,1.098-0.709,1.246l-2.52,0.692c0.042,0.243,0.077,0.489,0.1,0.738h2.613c0.561,0,1.015,0.454,1.015,1.014
	c0,0.561-0.454,1.015-1.015,1.015h-2.613c-0.021,0.212-0.047,0.421-0.081,0.629l2.525,0.665c0.542,0.143,0.866,0.698,0.722,1.24
	c-0.142,0.542-0.697,0.865-1.239,0.722l-2.524-0.664c-0.076,0.207-0.162,0.409-0.251,0.609l2.271,1.292
	c0.487,0.277,0.657,0.896,0.379,1.383c-0.276,0.487-0.896,0.657-1.382,0.38l-2.271-1.292c-0.144,0.202-0.292,0.401-0.451,0.592
	l1.848,1.848c0.396,0.396,0.396,1.038,0,1.434c-0.396,0.396-1.039,0.396-1.435,0l-1.847-1.847c-0.163,0.135-0.332,0.262-0.503,0.386
	l1.317,2.259c0.282,0.484,0.118,1.104-0.365,1.387c-0.484,0.282-1.105,0.118-1.388-0.366l-1.316-2.256
	c-0.199,0.091-0.401,0.177-0.606,0.256l0.691,2.519c0.148,0.54-0.169,1.099-0.709,1.247c-0.54,0.148-1.097-0.17-1.246-0.71
	l-0.692-2.52c-0.243,0.042-0.488,0.076-0.738,0.101v2.612c0,0.56-0.453,1.014-1.014,1.014s-1.014-0.454-1.014-1.014v-2.612
	c-0.211-0.021-0.422-0.048-0.63-0.082l-0.664,2.526c-0.144,0.542-0.697,0.865-1.24,0.722c-0.542-0.142-0.864-0.697-0.722-1.238
	l0.665-2.525c-0.207-0.076-0.41-0.161-0.61-0.25l-1.291,2.271c-0.277,0.487-0.896,0.657-1.383,0.379
	c-0.488-0.277-0.657-0.896-0.381-1.383l1.293-2.271c-0.203-0.144-0.401-0.293-0.593-0.451l-1.847,1.847
	c-0.396,0.396-1.039,0.396-1.434,0c-0.396-0.396-0.396-1.038,0-1.434l1.848-1.848c-0.136-0.162-0.263-0.332-0.387-0.503
	l-2.258,1.317c-0.484,0.282-1.105,0.119-1.387-0.365c-0.283-0.484-0.118-1.105,0.365-1.388l2.257-1.315
	c-0.092-0.199-0.177-0.402-0.256-0.607l-2.519,0.692c-0.54,0.148-1.099-0.169-1.247-0.709c-0.147-0.541,0.169-1.098,0.709-1.247
	l2.521-0.692c-0.042-0.244-0.076-0.489-0.101-0.738H449.18z"/>
<path d="M671.549,48.927c0,0,14.835-14.835,35.604-12.716c20.768,2.12,22.463,3.815,20.768,13.988
	c-1.694,10.172-7.205,94.095-3.813,110.625c3.39,16.53,2.967,21.616,9.748,27.126s9.749,18.226,19.922,25.008
	c10.172,6.782,18.648,3.391,22.039,5.934s5.419,1.745,6.196,11.353c0,0,1.837-0.141,1.908,1.272
	c0.069,1.413,1.059,2.896-1.626,3.744c-2.684,0.848-30.612,6.97-43.8,5.274c-13.188-1.695-14.506-3.014-23.737-16.578l-11.304,6.782
	c0,0-22.605-3.014-24.302-5.651c-1.695-2.638-0.941-20.158-0.188-20.723c0.754-0.565,0.754-2.637,0.754-2.637
	s-1.13-10.738,2.448-27.693c3.58-16.955-4.897-34.663-8.665-55.198C669.733,98.302,666.887,50.198,671.549,48.927z"/>
</svg>
